<svg width="24" height="18" viewBox="0 0 24 18" fill="none" xmlns="http://www.w3.org/2000/svg">
<path d="M23.347 15.9756C23.347 16.6698 22.785 17.2318 22.0908 17.2318C21.3966 17.2318 20.8346 16.6698 20.8346 15.9756C20.8346 15.2813 21.3966 14.7194 22.0908 14.7194C22.8181 14.7194 23.347 15.2813 23.347 15.9756Z" fill="white"/>
<path d="M7.87656 16.6691C6.55424 15.2806 7.57903 12.6029 7.81044 10.355C7.51292 10.6525 4.703 17.231 2.12449 17.231C2.09143 17.231 2.02532 17.231 1.99226 17.231C-0.354844 16.9996 -0.0573237 13.76 0.669949 11.8095H4.43854C3.28152 15.0162 4.8683 13.6938 5.9592 11.6773C8.14102 7.24756 8.17408 7.14839 10.5542 0.470703H14.7195C13.4964 4.27236 12.4385 7.67732 11.9427 11.6112C11.9427 11.7434 12.0088 11.9087 12.1741 11.8426C13.0336 11.7104 17.6947 1.19798 18.1245 0.470703H22.2898C22.2898 0.470703 17.86 12.7021 18.5873 13.8591C18.9509 14.5203 19.4468 13.2641 19.9096 12.7682L20.5708 13.4294C19.3476 14.7848 17.9592 17.2641 16.0088 17.2641C15.8435 17.2641 15.7113 17.231 15.546 17.231C15.2485 17.1649 14.9509 16.9996 14.7526 16.8013C12.5047 14.8509 16.5708 7.57814 16.141 7.11533C16.0088 7.11533 15.8766 7.47897 15.6452 7.97484C14.422 10.5203 11.579 17.2641 9.23193 17.2641C8.83524 17.231 8.27325 17.0988 7.87656 16.6691Z" fill="white"/>
</svg>
